<svg viewBox="0 0 16 16" fill="none" xmlns="http://www.w3.org/2000/svg">
<path fill-rule="evenodd" clip-rule="evenodd" d="M13.9039 7.76593C14.0322 7.89578 14.0322 8.10475 13.9039 8.23461L9.42842 12.7618C9.29847 12.8933 9.08637 12.8939 8.95566 12.7632L8.48395 12.2914C8.35443 12.1619 8.35369 11.9522 8.48229 11.8217L11.5926 8.66694L2.79036 8.66694C2.60627 8.66694 2.45703 8.5177 2.45703 8.33361V7.66694C2.45703 7.48285 2.60627 7.33361 2.79036 7.33361L11.5927 7.33361L8.48228 4.17871C8.35368 4.04828 8.35443 3.83851 8.48395 3.70899L8.95566 3.23728C9.08637 3.10657 9.29847 3.10718 9.42842 3.23864L13.9039 7.76593Z" fill="#111111" fill-opacity="0.68"/>
</svg>
