<svg width="20" height="20" viewBox="0 0 20 20" fill="none" xmlns="http://www.w3.org/2000/svg">
<path fill-rule="evenodd" clip-rule="evenodd" d="M3.19164 9.70729C3.03117 9.86961 3.03117 10.1308 3.19164 10.2931L8.78596 15.9521C8.94839 16.1164 9.21352 16.1172 9.3769 15.9538L9.96654 15.3642C10.1284 15.2023 10.1294 14.9401 9.96862 14.777L6.08069 10.8336L17.0835 10.8336C17.3136 10.8336 17.5002 10.647 17.5002 10.4169V9.58355C17.5002 9.35344 17.3136 9.16689 17.0835 9.16689L6.08065 9.16689L9.96863 5.22327C10.1294 5.06023 10.1284 4.79802 9.96654 4.63612L9.3769 4.04648C9.21352 3.8831 8.94839 3.88386 8.78595 4.04818L3.19164 9.70729Z" fill="#111111" fill-opacity="0.44"/>
</svg>
