<svg width="17" height="16" viewBox="0 0 17 16" fill="none" xmlns="http://www.w3.org/2000/svg">
<path fill-rule="evenodd" clip-rule="evenodd" d="M14.5709 7.76593C14.6992 7.89578 14.6992 8.10475 14.5709 8.23461L10.0954 12.7618C9.96546 12.8933 9.75336 12.8939 9.62266 12.7632L9.15095 12.2914C9.02142 12.1619 9.02068 11.9522 9.14928 11.8217L12.2596 8.66694L3.45736 8.66694C3.27326 8.66694 3.12402 8.5177 3.12402 8.33361V7.66694C3.12402 7.48285 3.27326 7.33361 3.45736 7.33361L12.2597 7.33361L9.14927 4.17871C9.02068 4.04828 9.02142 3.83851 9.15094 3.70899L9.62265 3.23728C9.75336 3.10657 9.96546 3.10718 10.0954 3.23864L14.5709 7.76593Z" fill="currentColor" />
</svg>
