<svg viewBox="0 0 40 40" fill="none" xmlns="http://www.w3.org/2000/svg">
<path d="M8 6C5.79086 6 4 7.79086 4 10V20C4 22.2091 5.79086 24 8 24H18V20C18 17.7909 19.7909 16 22 16V10C22 7.79086 20.2091 6 18 6H8Z" fill="currentColor" fill-opacity="0.12"/>
<path d="M8 7H18C19.6569 7 21 8.34315 21 10V16.126C21.3196 16.0438 21.6547 16 22 16V10C22 7.79086 20.2091 6 18 6H8C5.79086 6 4 7.79086 4 10V20C4 22.2091 5.79086 24 8 24H18V23H8C6.34315 23 5 21.6569 5 20V10C5 8.34315 6.34315 7 8 7Z" fill="currentColor"/>
<rect x="18.5" y="16.5" width="17" height="17" rx="3.5" fill="currentColor" fill-opacity="0.12" stroke="currentColor"/>
<path d="M13.3617 11.8127C13.259 11.9121 13.0926 11.9121 12.9899 11.8127L12.0473 10.9C11.9447 10.8006 11.9447 10.6394 12.0473 10.54L12.6049 10H12.9767L13.9193 10.9128C14.0219 11.0122 14.0219 11.1733 13.9193 11.2728L13.3617 11.8127Z" fill="currentColor"/>
<path fill-rule="evenodd" clip-rule="evenodd" d="M17 13.0678C17 13.2084 16.8823 13.3223 16.7371 13.3223H15.5676L15.531 13.5227L15.5307 13.5244L15.5302 13.5271L15.5288 13.5341L15.5247 13.5543C15.5213 13.5706 15.5165 13.5923 15.5101 13.6191C15.4974 13.6727 15.4782 13.7469 15.4506 13.8392C15.3954 14.0237 15.3065 14.281 15.1681 14.5913C14.9263 15.133 14.5336 15.8361 13.9063 16.5942C14.3262 16.9397 14.7597 17.1852 15.1279 17.3549C15.3899 17.4755 15.6144 17.5558 15.7703 17.6051C15.8481 17.6297 15.9083 17.6465 15.947 17.6566C15.9664 17.6617 15.9803 17.6651 15.9883 17.667L15.9943 17.6684L16.3787 17.7518C16.5203 17.7825 16.6095 17.9186 16.5777 18.0558L16.4054 18.801C16.3737 18.9382 16.2331 19.0245 16.0914 18.9938L15.7067 18.9103L15.7047 18.9099L15.7021 18.9093L15.6951 18.9078L15.6737 18.9028C15.6563 18.8986 15.6327 18.8928 15.6033 18.8851C15.5446 18.8697 15.4628 18.8468 15.3622 18.8149C15.1613 18.7514 14.8835 18.6517 14.5633 18.5042C14.1027 18.292 13.5455 17.9766 13.0027 17.5205C12.46 17.9766 11.9028 18.292 11.4422 18.5042C11.122 18.6517 10.8442 18.7514 10.6433 18.8149C10.5427 18.8468 10.4609 18.8697 10.4022 18.8851C10.3728 18.8928 10.3492 18.8986 10.3318 18.9028L10.3104 18.9078L10.3034 18.9093L10.3008 18.9099L10.2988 18.9103L9.91404 18.9938C9.77237 19.0245 9.63181 18.9382 9.60008 18.801L9.42774 18.0558C9.39602 17.9186 9.48514 17.7825 9.62681 17.7518L10.0112 17.6684L10.0172 17.667C10.0252 17.6651 10.0391 17.6617 10.0584 17.6566C10.0971 17.6465 10.1574 17.6297 10.2352 17.6051C10.3911 17.5558 10.6156 17.4755 10.8775 17.3549C11.2457 17.1852 11.6793 16.9397 12.0992 16.5942C11.4719 15.8361 11.0792 15.133 10.8374 14.5913C10.6989 14.281 10.6101 14.0237 10.5549 13.8392C10.5273 13.7469 10.5081 13.6727 10.4953 13.6191C10.489 13.5923 10.4842 13.5706 10.4808 13.5543L10.4767 13.5341L10.4753 13.5271L10.4748 13.5244L10.4745 13.5227L10.4379 13.3223H9.26287C9.11769 13.3223 9 13.2084 9 13.0678V12.3041C9 12.1635 9.11769 12.0496 9.26287 12.0496L16.7371 12.0496C16.8823 12.0496 17 12.1635 17 12.3041V13.0678ZM11.7736 13.3223H14.2319L14.2293 13.3335C14.2218 13.3652 14.2087 13.4165 14.1881 13.4852C14.1471 13.6226 14.0764 13.8292 13.9616 14.0864C13.7768 14.5005 13.4776 15.0462 13.0027 15.6473C12.5279 15.0462 12.2287 14.5005 12.0439 14.0864C11.9291 13.8292 11.8584 13.6226 11.8174 13.4852C11.7968 13.4165 11.7837 13.3652 11.7762 13.3335L11.7736 13.3223Z" fill="currentColor"/>
<path fill-rule="evenodd" clip-rule="evenodd" d="M28.4542 26.258L29.6879 28.8469C29.7458 28.9683 29.8921 29.0287 30.0263 28.9867L30.8116 28.7404C30.9646 28.6925 31.0412 28.5318 30.9775 28.3925L27.88 21.6197C27.5872 20.7934 26.3444 20.7934 26.0516 21.6197L23.0216 28.3937C22.9595 28.5327 23.0362 28.692 23.1884 28.7397L23.9738 28.986C24.1089 29.0283 24.2561 28.9668 24.3131 28.844L25.5125 26.2625C25.5377 26.2651 25.5632 26.2665 25.5891 26.2665H28.3425C28.3805 26.2665 28.4178 26.2636 28.4542 26.258ZM27.8412 24.9717L26.9658 23.1347L26.1123 24.9717H27.8412Z" fill="currentColor"/>
<path fill-rule="evenodd" clip-rule="evenodd" d="M24.1334 9.26514C23.8063 9.13912 23.6859 8.7266 23.9112 8.45809C24.0425 8.30164 24.2573 8.24189 24.4482 8.31458C27.1463 9.34221 29.3966 11.2775 30.8261 13.7472C30.9272 13.9217 30.9045 14.1403 30.7748 14.2948C30.5478 14.5654 30.1164 14.5151 29.9383 14.21C28.6294 11.9682 26.5838 10.2093 24.1334 9.26514ZM9.26579 26.4088C9.16085 26.2334 9.18231 26.0113 9.3137 25.8548C9.53886 25.5864 9.96566 25.633 10.1466 25.9329C11.4865 28.1533 13.5556 29.8841 16.0223 30.7935C16.354 30.9157 16.4789 31.3321 16.2517 31.6029C16.1221 31.7573 15.911 31.8176 15.7217 31.7486C13.0057 30.7594 10.7295 28.8552 9.26579 26.4088Z" fill="currentColor"/>
</svg>
