<svg width="144" height="48" viewBox="0 0 144 48" fill="none" xmlns="http://www.w3.org/2000/svg">
<path fill-rule="evenodd" clip-rule="evenodd" d="M10.8 8.71429H31.2C32.9042 8.71429 34.2857 10.0958 34.2857 11.8V23H36V11.8C36 9.14903 33.851 7 31.2 7H10.8C8.14903 7 6 9.14903 6 11.8V36.2C6 38.851 8.14903 41 10.8 41H20V39.2857H10.8C9.09581 39.2857 7.71429 37.9042 7.71429 36.2V11.8C7.71429 10.0958 9.09581 8.71429 10.8 8.71429Z" fill="currentColor"/>
<path d="M16.9243 21H14.9173L13.6663 18.993L12.4243 21H10.4623L12.5953 17.715L10.5883 14.574H12.5143L13.6753 16.563L14.7913 14.574H16.7713L14.7373 17.85L16.9243 21ZM19.2612 21H17.5422V14.16H19.2612V21ZM24.7534 19.047C24.7534 19.395 24.6634 19.725 24.4834 20.037C24.3094 20.349 24.0364 20.604 23.6644 20.802C23.2984 20.994 22.8214 21.09 22.2334 21.09C21.9394 21.09 21.6814 21.075 21.4594 21.045C21.2434 21.021 21.0394 20.979 20.8474 20.919C20.6554 20.859 20.4574 20.781 20.2534 20.685V19.137C20.6014 19.311 20.9524 19.446 21.3064 19.542C21.6604 19.632 21.9814 19.677 22.2694 19.677C22.4434 19.677 22.5844 19.656 22.6924 19.614C22.8004 19.572 22.8814 19.515 22.9354 19.443C22.9894 19.371 23.0164 19.29 23.0164 19.2C23.0164 19.086 22.9774 18.99 22.8994 18.912C22.8214 18.834 22.6984 18.753 22.5304 18.669C22.3624 18.585 22.1374 18.48 21.8554 18.354C21.6154 18.246 21.3994 18.132 21.2074 18.012C21.0154 17.892 20.8504 17.757 20.7124 17.607C20.5804 17.457 20.4784 17.283 20.4064 17.085C20.3344 16.881 20.2984 16.641 20.2984 16.365C20.2984 15.951 20.4004 15.606 20.6044 15.33C20.8084 15.048 21.0904 14.838 21.4504 14.7C21.8164 14.556 22.2394 14.484 22.7194 14.484C23.1394 14.484 23.5174 14.532 23.8534 14.628C24.1894 14.718 24.4894 14.823 24.7534 14.943L24.2224 16.284C23.9464 16.158 23.6734 16.059 23.4034 15.987C23.1394 15.909 22.8934 15.87 22.6654 15.87C22.5154 15.87 22.3924 15.888 22.2964 15.924C22.2004 15.96 22.1284 16.011 22.0804 16.077C22.0384 16.137 22.0174 16.206 22.0174 16.284C22.0174 16.386 22.0564 16.476 22.1344 16.554C22.2124 16.632 22.3414 16.719 22.5214 16.815C22.7074 16.905 22.9594 17.022 23.2774 17.166C23.5894 17.304 23.8534 17.457 24.0694 17.625C24.2914 17.787 24.4594 17.982 24.5734 18.21C24.6934 18.432 24.7534 18.711 24.7534 19.047ZM31.5318 21H29.5248L28.2738 18.993L27.0318 21H25.0698L27.2028 17.715L25.1958 14.574H27.1218L28.2828 16.563L29.3988 14.574H31.3788L29.3448 17.85L31.5318 21Z" fill="currentColor"/>
<path d="M37.8537 35.5244L30.4351 43.8066C30.2041 44.0645 29.7959 44.0645 29.5649 43.8066L22.1463 35.5244C21.8157 35.1553 22.0817 34.5745 22.5814 34.5745H27.0985L27.0985 27.5716C27.0985 27.2559 27.3583 27 27.6788 27H32.3212C32.6417 27 32.9015 27.2559 32.9015 27.5716V34.5745L37.4186 34.5745C37.9183 34.5745 38.1843 35.1553 37.8537 35.5244Z" fill="currentColor"/>
<path opacity="0.5" d="M84 24L79 21.1132V26.8868L84 24ZM60 24.5H61V23.5H60V24.5ZM63 24.5H65V23.5H63V24.5ZM67 24.5H69V23.5H67V24.5ZM71 24.5H73V23.5H71V24.5ZM75 24.5H77V23.5H75V24.5ZM79 24.5H81V23.5H79V24.5ZM84 24L74 18.2265V29.7735L84 24ZM60 25H61V23H60V25ZM63 25H65V23H63V25ZM67 25H69V23H67V25ZM71 25H73V23H71V25ZM75 25H77V23H75V25ZM79 25H81V23H79V25Z" fill="currentColor"/>
<rect width="48" height="48" transform="translate(96)" />
<path fill-rule="evenodd" clip-rule="evenodd" d="M136.969 22.2895C137.295 22.7791 137.486 23.3673 137.486 24V36C137.486 37.7042 136.104 39.0857 134.4 39.0857H122.4C120.696 39.0857 119.314 37.7042 119.314 36V24C119.314 23.0361 119.756 22.1753 120.449 21.6095C120.119 21.1514 119.856 20.629 119.692 20.0367C118.429 20.9014 117.6 22.3539 117.6 24V27.2571H105.6C103.801 27.2571 102.343 25.7988 102.343 24V12C102.343 10.2011 103.801 8.74283 105.6 8.74283H117.6C119.399 8.74283 120.857 10.2011 120.857 12V15.058C121.4 14.4686 122.059 14.0079 122.743 13.6591V12C122.743 9.15965 120.44 6.85712 117.6 6.85712H105.6C102.76 6.85712 100.457 9.15965 100.457 12V24C100.457 26.8403 102.76 29.1428 105.6 29.1428H117.6V36C117.6 38.651 119.749 40.8 122.4 40.8H134.4C137.051 40.8 139.2 38.651 139.2 36V24C139.2 22.788 138.751 21.681 138.01 20.8362C137.744 21.3937 137.385 21.8759 136.969 22.2895ZM136.345 19.6102C135.75 19.3465 135.092 19.2 134.4 19.2H122.743V16.0209C121.979 16.642 121.5 17.4774 121.5 18.5833C121.5 19.5573 121.871 20.3216 122.482 20.9143H134.4C134.733 20.9143 135.054 20.967 135.354 21.0646C135.813 20.6677 136.158 20.1874 136.345 19.6102ZM132.225 14.7275C132.611 15.2361 132.967 15.7695 133.288 16.3249C133.484 16.6638 133.437 17.0824 133.193 17.3742C132.757 17.8936 131.955 17.7811 131.63 17.2249C131.029 16.1959 130.296 15.2539 129.453 14.4222C129.861 14.4323 130.277 14.4563 130.693 14.4967C131.21 14.5468 131.726 14.6222 132.225 14.7275ZM130.213 12.5496C128.83 11.3158 127.223 10.3286 125.46 9.65708C125.407 9.63696 125.354 9.62211 125.3 9.61229C125.513 10.908 126.389 11.9801 127.569 12.4675C128.01 12.6496 128.493 12.75 129 12.75C129.424 12.75 129.832 12.6795 130.213 12.5496ZM111.588 14.1753C111.711 14.2946 111.911 14.2946 112.034 14.1753L112.703 13.5273C112.826 13.408 112.826 13.2146 112.703 13.0953L111.572 12H111.126L110.457 12.648C110.333 12.7673 110.333 12.9607 110.457 13.08L111.588 14.1753ZM116.084 15.9868C116.259 15.9868 116.4 15.85 116.4 15.6813V14.765C116.4 14.5962 116.259 14.4595 116.084 14.4595L107.115 14.4595C106.941 14.4595 106.8 14.5963 106.8 14.765V15.6813C106.8 15.85 106.941 15.9868 107.115 15.9868H108.525L108.569 16.2272L108.57 16.2292L108.57 16.2325L108.572 16.2409L108.577 16.2652C108.581 16.2847 108.587 16.3107 108.594 16.3429C108.61 16.4072 108.633 16.4962 108.666 16.607C108.732 16.8285 108.839 17.1372 109.005 17.5095C109.295 18.1596 109.766 19.0033 110.519 19.9131C110.015 20.3276 109.495 20.6223 109.053 20.8258C108.739 20.9707 108.469 21.0669 108.282 21.1261C108.189 21.1556 108.116 21.1758 108.07 21.1879C108.047 21.194 108.03 21.1981 108.02 21.2004L108.013 21.2021L107.552 21.3022C107.382 21.339 107.275 21.5024 107.313 21.667L107.52 22.5612C107.558 22.7259 107.727 22.8294 107.897 22.7926L108.361 22.6919L108.364 22.6912L108.372 22.6893L108.398 22.6833C108.419 22.6783 108.447 22.6713 108.482 22.6621C108.553 22.6436 108.651 22.6161 108.772 22.5779C109.013 22.5017 109.346 22.382 109.73 22.205C110.283 21.9504 110.952 21.572 111.603 21.0246C112.254 21.572 112.923 21.9504 113.476 22.205C113.86 22.382 114.193 22.5017 114.434 22.5779C114.555 22.6161 114.653 22.6436 114.724 22.6621C114.759 22.6713 114.787 22.6783 114.808 22.6833L114.834 22.6893L114.842 22.6912L114.845 22.6919L115.31 22.7926C115.48 22.8294 115.648 22.7259 115.686 22.5612L115.893 21.667C115.931 21.5024 115.824 21.339 115.654 21.3022L115.193 21.2021L115.186 21.2004L115.16 21.1942L115.136 21.1879C115.09 21.1758 115.018 21.1556 114.924 21.1261C114.737 21.0669 114.468 20.9707 114.153 20.8258C113.712 20.6223 113.191 20.3276 112.687 19.9131C113.44 19.0033 113.911 18.1596 114.202 17.5095C114.368 17.1372 114.474 16.8285 114.541 16.607C114.574 16.4962 114.597 16.4072 114.612 16.3429C114.62 16.3107 114.625 16.2847 114.629 16.2652L114.634 16.2409L114.636 16.2325L114.637 16.2292L114.637 16.2272L114.681 15.9868H116.084ZM113.078 15.9868H110.128L110.131 16.0003C110.14 16.0382 110.156 16.0998 110.181 16.1822C110.23 16.3471 110.315 16.595 110.452 16.9037C110.674 17.4006 111.033 18.0555 111.603 18.7767C112.173 18.0555 112.532 17.4006 112.754 16.9037C112.891 16.595 112.976 16.3471 113.026 16.1822C113.05 16.0998 113.066 16.0382 113.075 16.0003L113.078 15.9868ZM131.626 34.6163L130.145 31.5096C130.102 31.5163 130.057 31.5198 130.011 31.5198H126.707C126.676 31.5198 126.645 31.5182 126.615 31.515L125.176 34.6128C125.107 34.7601 124.931 34.834 124.769 34.7832L123.826 34.4877C123.644 34.4305 123.551 34.2392 123.626 34.0724L127.262 25.9437C127.613 24.9521 129.105 24.9521 129.456 25.9437L133.173 34.071C133.25 34.2381 133.158 34.431 132.974 34.4886L132.032 34.784C131.871 34.8345 131.695 34.762 131.626 34.6163ZM128.359 27.7616L129.41 29.9661H127.335L128.359 27.7616ZM106.914 30.8054C107.346 30.2906 108.14 30.3955 108.47 30.9424C110.038 33.5411 112.459 35.5665 115.346 36.6305C115.95 36.8533 116.201 37.624 115.765 38.1438C115.52 38.4354 115.117 38.5544 114.749 38.4205C111.415 37.2061 108.621 34.869 106.825 31.8667C106.621 31.5262 106.666 31.101 106.914 30.8054Z" fill="currentColor"/>
<path d="M136.5 18.5833C136.5 21.8378 132.353 22.75 129 22.75C125.647 22.75 121.5 21.8378 121.5 18.5833C121.5 15.3288 125.647 14.4167 129 14.4167C132.353 14.4167 136.5 15.3288 136.5 18.5833Z" fill="currentColor"/>
<path d="M132.75 9C132.75 11.0711 131.071 12.75 129 12.75C126.929 12.75 125.25 11.0711 125.25 9C125.25 6.92893 126.929 5.25 129 5.25C131.071 5.25 132.75 6.92893 132.75 9Z" fill="currentColor"/>
</svg>
