<svg width="144" height="48" viewBox="0 0 144 48" fill="none" xmlns="http://www.w3.org/2000/svg">
<path fill-rule="evenodd" clip-rule="evenodd" d="M10.8 8.71429H31.2C32.9042 8.71429 34.2857 10.0958 34.2857 11.8V23H36V11.8C36 9.14903 33.851 7 31.2 7H10.8C8.14903 7 6 9.14903 6 11.8V36.2C6 38.851 8.14903 41 10.8 41H20V39.2857H10.8C9.09581 39.2857 7.71429 37.9042 7.71429 36.2V11.8C7.71429 10.0958 9.09581 8.71429 10.8 8.71429Z" fill="#1D77FF"/>
<path d="M16.9243 21H14.9173L13.6663 18.993L12.4243 21H10.4623L12.5953 17.715L10.5883 14.574H12.5143L13.6753 16.563L14.7913 14.574H16.7713L14.7373 17.85L16.9243 21ZM19.2612 21H17.5422V14.16H19.2612V21ZM24.7534 19.047C24.7534 19.395 24.6634 19.725 24.4834 20.037C24.3094 20.349 24.0364 20.604 23.6644 20.802C23.2984 20.994 22.8214 21.09 22.2334 21.09C21.9394 21.09 21.6814 21.075 21.4594 21.045C21.2434 21.021 21.0394 20.979 20.8474 20.919C20.6554 20.859 20.4574 20.781 20.2534 20.685V19.137C20.6014 19.311 20.9524 19.446 21.3064 19.542C21.6604 19.632 21.9814 19.677 22.2694 19.677C22.4434 19.677 22.5844 19.656 22.6924 19.614C22.8004 19.572 22.8814 19.515 22.9354 19.443C22.9894 19.371 23.0164 19.29 23.0164 19.2C23.0164 19.086 22.9774 18.99 22.8994 18.912C22.8214 18.834 22.6984 18.753 22.5304 18.669C22.3624 18.585 22.1374 18.48 21.8554 18.354C21.6154 18.246 21.3994 18.132 21.2074 18.012C21.0154 17.892 20.8504 17.757 20.7124 17.607C20.5804 17.457 20.4784 17.283 20.4064 17.085C20.3344 16.881 20.2984 16.641 20.2984 16.365C20.2984 15.951 20.4004 15.606 20.6044 15.33C20.8084 15.048 21.0904 14.838 21.4504 14.7C21.8164 14.556 22.2394 14.484 22.7194 14.484C23.1394 14.484 23.5174 14.532 23.8534 14.628C24.1894 14.718 24.4894 14.823 24.7534 14.943L24.2224 16.284C23.9464 16.158 23.6734 16.059 23.4034 15.987C23.1394 15.909 22.8934 15.87 22.6654 15.87C22.5154 15.87 22.3924 15.888 22.2964 15.924C22.2004 15.96 22.1284 16.011 22.0804 16.077C22.0384 16.137 22.0174 16.206 22.0174 16.284C22.0174 16.386 22.0564 16.476 22.1344 16.554C22.2124 16.632 22.3414 16.719 22.5214 16.815C22.7074 16.905 22.9594 17.022 23.2774 17.166C23.5894 17.304 23.8534 17.457 24.0694 17.625C24.2914 17.787 24.4594 17.982 24.5734 18.21C24.6934 18.432 24.7534 18.711 24.7534 19.047ZM31.5318 21H29.5248L28.2738 18.993L27.0318 21H25.0698L27.2028 17.715L25.1958 14.574H27.1218L28.2828 16.563L29.3988 14.574H31.3788L29.3448 17.85L31.5318 21Z" fill="#1D77FF"/>
<path d="M37.8537 34.4756L30.4351 26.1934C30.2041 25.9355 29.7959 25.9355 29.5649 26.1934L22.1463 34.4756C21.8157 34.8447 22.0817 35.4255 22.5814 35.4255H27.0985L27.0985 42.4284C27.0985 42.7441 27.3583 43 27.6788 43H32.3212C32.6417 43 32.9015 42.7441 32.9015 42.4284V35.4255L37.4186 35.4255C37.9183 35.4255 38.1843 34.8447 37.8537 34.4756Z" fill="#1D77FF"/>
<path opacity="0.5" d="M84 24L79 21.1132V26.8868L84 24ZM60 24.5H61V23.5H60V24.5ZM63 24.5H65V23.5H63V24.5ZM67 24.5H69V23.5H67V24.5ZM71 24.5H73V23.5H71V24.5ZM75 24.5H77V23.5H75V24.5ZM79 24.5H81V23.5H79V24.5ZM84 24L74 18.2265V29.7735L84 24ZM60 25H61V23H60V25ZM63 25H65V23H63V25ZM67 25H69V23H67V25ZM71 25H73V23H71V25ZM75 25H77V23H75V25ZM79 25H81V23H79V25Z" fill="#62A0FF"/>
<path d="M105.6 8.40001H117.6C119.588 8.40001 121.2 10.0118 121.2 12V19.3512C121.584 19.2525 121.986 19.2 122.4 19.2V12C122.4 9.34905 120.251 7.20001 117.6 7.20001H105.6C102.949 7.20001 100.8 9.34905 100.8 12V24C100.8 26.651 102.949 28.8 105.6 28.8H117.6V27.6H105.6C103.612 27.6 102 25.9882 102 24V12C102 10.0118 103.612 8.40001 105.6 8.40001Z" fill="#1D77FF" stroke="#1D77FF" stroke-width="0.685714"/>
<rect x="118.457" y="20.0572" width="19.8857" height="19.8857" rx="3.94286" stroke="#1D77FF" stroke-width="1.71429"/>
<path d="M112.034 14.1753C111.911 14.2946 111.711 14.2946 111.588 14.1753L110.457 13.08C110.334 12.9607 110.334 12.7673 110.457 12.648L111.126 12H111.572L112.703 13.0953C112.826 13.2146 112.826 13.408 112.703 13.5273L112.034 14.1753Z" fill="#1D77FF"/>
<path fill-rule="evenodd" clip-rule="evenodd" d="M116.4 15.6813C116.4 15.85 116.259 15.9868 116.085 15.9868H114.681L114.637 16.2272L114.637 16.2292L114.636 16.2325L114.635 16.2409L114.63 16.2652C114.626 16.2847 114.62 16.3107 114.612 16.3429C114.597 16.4072 114.574 16.4962 114.541 16.607C114.475 16.8285 114.368 17.1372 114.202 17.5095C113.912 18.1596 113.44 19.0033 112.688 19.9131C113.192 20.3276 113.712 20.6223 114.154 20.8258C114.468 20.9707 114.737 21.0669 114.924 21.1261C115.018 21.1556 115.09 21.1758 115.137 21.1879C115.16 21.194 115.176 21.1981 115.186 21.2004L115.193 21.2021L115.654 21.3022C115.824 21.339 115.931 21.5024 115.893 21.667L115.687 22.5612C115.648 22.7259 115.48 22.8294 115.31 22.7926L114.848 22.6924L114.846 22.6919L114.843 22.6912L114.834 22.6893L114.809 22.6833C114.788 22.6783 114.759 22.6713 114.724 22.6621C114.654 22.6436 114.555 22.6161 114.435 22.5779C114.194 22.5017 113.86 22.382 113.476 22.205C112.923 21.9504 112.255 21.572 111.603 21.0246C110.952 21.572 110.283 21.9504 109.731 22.205C109.346 22.382 109.013 22.5017 108.772 22.5779C108.651 22.6161 108.553 22.6436 108.483 22.6621C108.447 22.6713 108.419 22.6783 108.398 22.6833L108.373 22.6893L108.364 22.6912L108.361 22.6919L108.359 22.6924L107.897 22.7926C107.727 22.8294 107.558 22.7259 107.52 22.5612L107.313 21.667C107.275 21.5024 107.382 21.339 107.552 21.3022L108.013 21.2021L108.021 21.2004C108.03 21.1981 108.047 21.194 108.07 21.1879C108.117 21.1758 108.189 21.1556 108.282 21.1261C108.469 21.0669 108.739 20.9707 109.053 20.8258C109.495 20.6223 110.015 20.3276 110.519 19.9131C109.766 19.0033 109.295 18.1596 109.005 17.5095C108.839 17.1372 108.732 16.8285 108.666 16.607C108.633 16.4962 108.61 16.4072 108.594 16.3429C108.587 16.3107 108.581 16.2847 108.577 16.2652L108.572 16.2409L108.57 16.2325L108.57 16.2292L108.569 16.2272L108.525 15.9868H107.115C106.941 15.9868 106.8 15.85 106.8 15.6813V14.765C106.8 14.5963 106.941 14.4595 107.115 14.4595L116.085 14.4595C116.259 14.4595 116.4 14.5962 116.4 14.765V15.6813ZM110.128 15.9868H113.078L113.075 16.0003C113.066 16.0382 113.05 16.0998 113.026 16.1822C112.977 16.3471 112.892 16.595 112.754 16.9037C112.532 17.4006 112.173 18.0555 111.603 18.7767C111.034 18.0555 110.674 17.4006 110.453 16.9037C110.315 16.595 110.23 16.3471 110.181 16.1822C110.156 16.0998 110.14 16.0382 110.131 16.0003L110.128 15.9868Z" fill="#1D77FF"/>
<path fill-rule="evenodd" clip-rule="evenodd" d="M130.145 31.5096L131.626 34.6163C131.695 34.762 131.871 34.8345 132.032 34.784L132.974 34.4886C133.158 34.431 133.25 34.2381 133.173 34.071L129.456 25.9437C129.105 24.9521 127.613 24.9521 127.262 25.9437L123.626 34.0724C123.551 34.2392 123.644 34.4305 123.826 34.4877L124.769 34.7832C124.931 34.834 125.107 34.7601 125.176 34.6128L126.615 31.515C126.645 31.5182 126.676 31.5198 126.707 31.5198H130.011C130.057 31.5198 130.102 31.5163 130.145 31.5096ZM129.41 29.9661L128.359 27.7616L127.335 29.9661H129.41Z" fill="#1D77FF"/>
<path fill-rule="evenodd" clip-rule="evenodd" d="M124.96 11.1182C124.568 10.9669 124.423 10.4719 124.694 10.1497C124.851 9.96196 125.109 9.89026 125.338 9.97749C128.576 11.2107 131.276 13.5329 132.991 16.4966C133.113 16.7061 133.085 16.9684 132.93 17.1538C132.657 17.4785 132.14 17.4181 131.926 17.052C130.355 14.3619 127.901 12.2511 124.96 11.1182ZM107.119 31.6906C106.993 31.4801 107.019 31.2136 107.176 31.0257C107.447 30.7037 107.959 30.7596 108.176 31.1195C109.784 33.784 112.267 35.8609 115.227 36.9522C115.625 37.0989 115.775 37.5985 115.502 37.9235C115.347 38.1087 115.093 38.1811 114.866 38.0984C111.607 36.9112 108.875 34.6262 107.119 31.6906Z" fill="#1D77FF"/>
<path d="M115.227 36.9522L115.345 36.6305L115.227 36.9522ZM115.502 37.9235L115.765 38.1439L115.502 37.9235ZM108.176 31.1195L107.882 31.2966L108.176 31.1195ZM107.176 31.0257L107.439 31.2461L107.176 31.0257ZM107.119 31.6906L107.413 31.5146H107.413L107.119 31.6906ZM131.926 17.052L131.63 17.2249L131.926 17.052ZM132.991 16.4966L133.288 16.3248L132.991 16.4966ZM132.93 17.1538L133.192 17.3742L132.93 17.1538ZM125.338 9.97749L125.46 9.65709L125.338 9.97749ZM124.694 10.1497L124.431 9.92932L124.694 10.1497ZM125.216 10.2979C128.379 11.5027 131.018 13.7721 132.695 16.6684L133.288 16.3248C131.534 13.2938 128.772 10.9186 125.46 9.65709L125.216 10.2979ZM132.222 16.8791C130.613 14.1225 128.097 11.9594 125.083 10.7982L124.837 11.4381C127.704 12.5427 130.098 14.6012 131.63 17.2249L132.222 16.8791ZM107.882 31.2966C109.53 34.0269 112.074 36.1554 115.108 37.2739L115.345 36.6305C112.459 35.5665 110.038 33.5411 108.47 30.9424L107.882 31.2966ZM114.983 37.7762C111.799 36.6164 109.13 34.3834 107.413 31.5146L106.825 31.8666C108.621 34.8689 111.415 37.2061 114.749 38.4205L114.983 37.7762ZM115.239 37.7031C115.173 37.782 115.07 37.8078 114.983 37.7762L114.749 38.4205C115.116 38.5544 115.52 38.4354 115.765 38.1439L115.239 37.7031ZM115.108 37.2739C115.3 37.3445 115.348 37.573 115.239 37.7031L115.765 38.1439C116.201 37.624 115.95 36.8533 115.345 36.6305L115.108 37.2739ZM107.439 31.2461C107.548 31.1169 107.778 31.1238 107.882 31.2966L108.47 30.9424C108.139 30.3954 107.346 30.2906 106.914 30.8053L107.439 31.2461ZM106.914 30.8053C106.666 31.101 106.621 31.5262 106.825 31.8666L107.413 31.5146C107.365 31.4341 107.372 31.3263 107.439 31.2461L106.914 30.8053ZM132.667 16.9334C132.558 17.0635 132.325 17.0551 132.222 16.8791L131.63 17.2249C131.955 17.7811 132.757 17.8936 133.192 17.3742L132.667 16.9334ZM132.695 16.6684C132.741 16.7484 132.733 16.8544 132.667 16.9334L133.192 17.3742C133.437 17.0824 133.484 16.6638 133.288 16.3248L132.695 16.6684ZM124.956 10.3701C125.023 10.29 125.128 10.2646 125.216 10.2979L125.46 9.65709C125.089 9.51596 124.679 9.63393 124.431 9.92932L124.956 10.3701ZM124.431 9.92932C123.999 10.4445 124.241 11.2084 124.837 11.4381L125.083 10.7982C124.895 10.7255 124.848 10.4993 124.956 10.3701L124.431 9.92932Z" fill="#1D77FF"/>
</svg>
