<svg viewBox="0 0 18 18" fill="none" xmlns="http://www.w3.org/2000/svg">
<path fill-rule="evenodd" clip-rule="evenodd" d="M3.75 1.5C2.50736 1.5 1.5 2.50736 1.5 3.75L1.5 14.25C1.5 15.4926 2.50736 16.5 3.75 16.5H14.25C15.4926 16.5 16.5 15.4926 16.5 14.25V3.75C16.5 2.50736 15.4926 1.5 14.25 1.5L3.75 1.5Z" fill="currentColor"/>
<path d="M13.5454 7.01522C13.6919 6.86878 13.6919 6.63134 13.5454 6.48489L13.0151 5.95456C12.8687 5.80811 12.6312 5.80811 12.4848 5.95456L10.3674 8.07198L8.24993 10.1894L5.8901 7.82956C5.74365 7.68311 5.50622 7.68311 5.35977 7.82956L4.82944 8.35989C4.68299 8.50634 4.68299 8.74377 4.82944 8.89022L7.7196 11.7804C8.0125 12.0733 8.48737 12.0733 8.78026 11.7804L13.5454 7.01522Z" fill="white"/>
</svg>
