<svg viewBox="0 0 40 40" fill="none" xmlns="http://www.w3.org/2000/svg">
<path d="M31.5 26.3704C31.5 27.3701 31.0725 28.3221 30.3253 28.9863L26.242 32.6159C25.6013 33.1854 24.7739 33.5 23.9167 33.5H15C13.067 33.5 11.5 31.933 11.5 30V13C11.5 11.067 13.067 9.5 15 9.5H28C29.933 9.5 31.5 11.067 31.5 13V26.3704Z" fill="currentColor" fill-opacity="0.12" stroke="currentColor"/>
<path d="M24 34V30C24 27.7909 25.7909 26 28 26H32" stroke="currentColor"/>
<path d="M9.33398 26V12C9.33398 9.23858 11.5726 7 14.334 7H24.334C25.6402 7 26.7514 7.83481 27.1633 9H28.208C27.7639 7.27477 26.1978 6 24.334 6H14.334C11.0203 6 8.33398 8.68629 8.33398 12V26C8.33398 27.7416 9.44698 29.2232 11.0005 29.7723V28.6881C10.0128 28.1971 9.33398 27.1778 9.33398 26Z" fill="currentColor"/>
</svg>
