<svg viewBox="0 0 16 16" fill="none" xmlns="http://www.w3.org/2000/svg">
<path d="M11.3333 1.69061L15.3333 4.00001L11.3333 6.30942V4.88967C9.74367 5.34412 8.3986 6.46571 7.67832 8.00002C8.3986 9.53433 9.74367 10.6559 11.3333 11.1104V9.69061L15.3333 12L11.3333 14.3094V12.4867C9.57898 12.0847 8.03581 11.0303 7.0239 9.53781C6.12704 11.3642 4.30427 12.5637 2.26669 12.6604C2.11958 12.6673 2 12.5473 2 12.4V11.6C2 11.4527 2.11962 11.3342 2.26661 11.3251C3.8857 11.2241 5.31761 10.2091 5.9421 8.69515L6.22884 8.00002L5.9421 7.30489C5.31761 5.79097 3.8857 4.77597 2.26661 4.67499C2.11962 4.66582 2 4.5473 2 4.40002V3.60002C2 3.45274 2.11958 3.33269 2.26669 3.33967C4.30427 3.43638 6.12704 4.63587 7.0239 6.46223C8.03581 4.96971 9.57898 3.91534 11.3333 3.51332V1.69061Z" fill="currentColor" />
</svg>
