<svg viewBox="0 0 48 48" fill="none" xmlns="http://www.w3.org/2000/svg">
<path fill-rule="evenodd" clip-rule="evenodd" d="M23.6314 20.0785C22.4024 20.9478 21.6001 22.3802 21.6001 24V27.2572H9.59989C7.80102 27.2572 6.34275 25.7989 6.34275 24V12C6.34275 10.2012 7.80102 8.74289 9.59989 8.74289H21.5999C22.0959 8.74289 22.566 8.85376 22.9867 9.05205C23.2683 8.48336 23.5969 7.94208 23.9674 7.43331C23.2587 7.06519 22.4536 6.85718 21.5999 6.85718H9.59989C6.75957 6.85718 4.45703 9.15971 4.45703 12V24C4.45703 26.8404 6.75957 29.1429 9.59989 29.1429H21.6001V36C21.6001 38.6509 23.7491 40.7999 26.4001 40.7999H38.4001C41.0511 40.7999 43.2001 38.6509 43.2001 35.9999V24C43.2001 22.7358 42.7114 21.5859 41.9127 20.7286C41.5648 21.1887 41.182 21.6211 40.7684 22.0217C41.2162 22.5573 41.4858 23.2472 41.4858 24V35.9999C41.4858 37.7041 40.1043 39.0857 38.4001 39.0857H26.4001C24.6959 39.0857 23.3144 37.7041 23.3144 36V24C23.3144 22.935 23.8538 21.9961 24.6744 21.4416C24.2932 21.0154 23.9442 20.5597 23.6314 20.0785ZM24.857 18.2132C25.391 19.2432 26.1146 20.1589 26.9817 20.9142H38.4001C38.5913 20.9142 38.7784 20.9316 38.96 20.9649C39.4443 20.5501 39.8849 20.0856 40.2738 19.5794C39.6981 19.3351 39.0649 19.2 38.4001 19.2H26.7427V12C26.7427 10.7366 26.2871 9.57954 25.5313 8.68424C25.1234 9.25626 24.7796 9.87712 24.5104 10.5363C24.7322 10.9764 24.857 11.4736 24.857 12V18.2132ZM15.5877 14.1753C15.7109 14.2946 15.9106 14.2946 16.0338 14.1753L16.7029 13.5273C16.8261 13.408 16.8261 13.2146 16.7029 13.0953L15.5718 12H15.1257L14.4566 12.648C14.3334 12.7673 14.3334 12.9607 14.4566 13.08L15.5877 14.1753ZM20.0844 15.9868C20.2586 15.9868 20.3998 15.85 20.3998 15.6813V14.765C20.3998 14.5962 20.2586 14.4595 20.0844 14.4595L11.1152 14.4595C10.941 14.4595 10.7998 14.5963 10.7998 14.765V15.6813C10.7998 15.85 10.941 15.9868 11.1152 15.9868H12.5252L12.5692 16.2272L12.5696 16.2292L12.5702 16.2325L12.5718 16.2409L12.5768 16.2652C12.5809 16.2847 12.5866 16.3107 12.5942 16.3429C12.6095 16.4072 12.6325 16.4962 12.6657 16.607C12.7319 16.8285 12.8385 17.1372 13.0047 17.5095C13.2948 18.1596 13.7661 19.0033 14.5189 19.9131C14.0149 20.3276 13.4947 20.6223 13.0529 20.8258C12.7385 20.9707 12.4691 21.0669 12.282 21.1261C12.1887 21.1556 12.1164 21.1758 12.0699 21.1879C12.0467 21.194 12.03 21.1981 12.0204 21.2004L12.0132 21.2021L11.552 21.3022C11.382 21.339 11.275 21.5024 11.3131 21.667L11.5199 22.5612C11.558 22.7259 11.7267 22.8294 11.8967 22.7926L12.3584 22.6924L12.3607 22.6919L12.3639 22.6912L12.3723 22.6893L12.3979 22.6833C12.4188 22.6783 12.4472 22.6713 12.4824 22.6621C12.5529 22.6436 12.651 22.6161 12.7718 22.5779C13.0129 22.5017 13.3462 22.382 13.7305 22.205C14.2831 21.9504 14.9518 21.572 15.6031 21.0246C16.2544 21.572 16.9231 21.9504 17.4757 22.205C17.86 22.382 18.1933 22.5017 18.4344 22.5779C18.5552 22.6161 18.6533 22.6436 18.7238 22.6621C18.759 22.6713 18.7874 22.6783 18.8083 22.6833L18.8339 22.6893L18.8423 22.6912L18.8455 22.6919L18.8478 22.6924L19.3095 22.7926C19.4795 22.8294 19.6482 22.7259 19.6863 22.5612L19.8931 21.667C19.9312 21.5024 19.8242 21.339 19.6542 21.3022L19.193 21.2021L19.1858 21.2004C19.1762 21.1981 19.1595 21.194 19.1363 21.1879C19.0898 21.1758 19.0175 21.1556 18.9242 21.1261C18.7371 21.0669 18.4677 20.9707 18.1533 20.8258C17.7115 20.6223 17.1913 20.3276 16.6873 19.9131C17.4401 19.0033 17.9114 18.1596 18.2015 17.5095C18.3677 17.1372 18.4743 16.8285 18.5405 16.607C18.5737 16.4962 18.5967 16.4072 18.612 16.3429C18.6196 16.3107 18.6253 16.2847 18.6294 16.2652L18.6344 16.2409L18.636 16.2325L18.6366 16.2292L18.637 16.2272L18.681 15.9868H20.0844ZM17.0781 15.9868H14.1281L14.1312 16.0003C14.1402 16.0382 14.156 16.0998 14.1806 16.1822C14.2299 16.3471 14.3147 16.595 14.4525 16.9037C14.6742 17.4006 15.0333 18.0555 15.6031 18.7767C16.1729 18.0555 16.532 17.4006 16.7537 16.9037C16.8915 16.595 16.9763 16.3471 17.0256 16.1822C17.0502 16.0998 17.066 16.0382 17.075 16.0003L17.0781 15.9868ZM34.1451 31.5095L35.6256 34.6162C35.695 34.7619 35.8706 34.8344 36.0316 34.7839L36.9741 34.4885C37.1576 34.431 37.2495 34.2381 37.1731 34.0709L33.4561 25.9436C33.1047 24.9521 31.6134 24.9521 31.262 25.9436L27.6261 34.0723C27.5515 34.2392 27.6436 34.4304 27.8261 34.4876L28.7686 34.7831C28.9308 34.8339 29.1074 34.7601 29.1759 34.6127L30.6152 31.515C30.6453 31.5181 30.676 31.5197 30.707 31.5197H34.0111C34.0567 31.5197 34.1015 31.5162 34.1451 31.5095ZM33.4096 29.966L32.3591 27.7616L31.3348 29.966H33.4096ZM28.431 9.9293C28.6789 9.63391 29.0895 9.51595 29.46 9.65708C32.7721 10.9186 35.5338 13.2938 37.2882 16.3249C37.4844 16.6638 37.4375 17.0824 37.1926 17.3742C36.7568 17.8936 35.9548 17.7811 35.63 17.2249C34.0982 14.6013 31.704 12.5428 28.837 11.4381C28.2407 11.2083 27.9988 10.4445 28.431 9.9293ZM10.9139 30.8054C11.3459 30.2906 12.1396 30.3955 12.4697 30.9424C14.0378 33.5411 16.4595 35.5665 19.3455 36.6305C19.95 36.8533 20.201 37.624 19.7648 38.1438C19.5202 38.4354 19.1165 38.5544 18.7489 38.4205C15.4148 37.2061 12.6213 34.869 10.8249 31.8667C10.6212 31.5262 10.6659 31.101 10.9139 30.8054Z" fill="currentColor"/>
<path fill-rule="evenodd" clip-rule="evenodd" d="M33.0002 4.83325C27.9376 4.83325 23.8335 8.93731 23.8335 13.9999C23.8335 19.0625 27.9376 23.1666 33.0002 23.1666C38.0628 23.1666 42.1668 19.0625 42.1668 13.9999C42.1668 8.93731 38.0628 4.83325 33.0002 4.83325Z" fill="currentColor"/>
<path d="M33.7597 10.25C33.7597 10.0199 33.5731 9.83331 33.343 9.83331H32.5097C32.2796 9.83331 32.093 10.0199 32.093 10.25V14.625C32.093 14.8723 32.2029 15.1068 32.3929 15.2652L35.213 17.6152C35.3897 17.7626 35.6525 17.7387 35.7998 17.5619L36.3333 16.9217C36.4806 16.7449 36.4567 16.4822 36.2799 16.3349L33.9096 14.3596C33.8146 14.2804 33.7597 14.1632 33.7597 14.0395V10.25Z" fill="white"/>
</svg>
