<svg viewBox="0 0 16 16" fill="none" xmlns="http://www.w3.org/2000/svg">
<path fill-rule="evenodd" clip-rule="evenodd" d="M7.35247 0.930486C7.75517 0.706765 8.24482 0.706765 8.64752 0.930486L13.9809 3.89345C14.4041 4.12861 14.6667 4.57477 14.6667 5.05899V10.9411C14.6667 11.4253 14.4041 11.8715 13.9809 12.1067L8.64752 15.0696C8.24482 15.2933 7.75517 15.2933 7.35247 15.0696L2.01914 12.1067C1.59585 11.8715 1.33333 11.4253 1.33333 10.9411V5.05899C1.33333 4.57477 1.59585 4.12861 2.01914 3.89345L7.35247 0.930486ZM8 2.09603L2.66666 5.05899V10.9411L8 13.9041L13.3333 10.9411V5.05899L8 2.09603Z" fill="currentColor" />
<path fill-rule="evenodd" clip-rule="evenodd" d="M8 6.66672C7.26362 6.66672 6.66666 7.26368 6.66666 8.00006C6.66666 8.73644 7.26362 9.33339 8 9.33339C8.73637 9.33339 9.33333 8.73644 9.33333 8.00006C9.33333 7.26368 8.73637 6.66672 8 6.66672ZM5.33333 8.00006C5.33333 6.5273 6.52724 5.33339 8 5.33339C9.47275 5.33339 10.6667 6.5273 10.6667 8.00006C10.6667 9.47282 9.47275 10.6667 8 10.6667C6.52724 10.6667 5.33333 9.47282 5.33333 8.00006Z" fill="currentColor" />
</svg>
