<svg viewBox="0 0 20 20" fill="none" xmlns="http://www.w3.org/2000/svg">
<path fill-rule="evenodd" clip-rule="evenodd" d="M10.0004 6.25016C7.92934 6.25016 6.25041 7.92909 6.25041 10.0002C6.25041 12.0712 7.92934 13.7502 10.0004 13.7502C12.0715 13.7502 13.7504 12.0712 13.7504 10.0002C13.7504 7.92909 12.0715 6.25016 10.0004 6.25016ZM7.91707 10.0002C7.91707 8.84957 8.84981 7.91683 10.0004 7.91683C11.151 7.91683 12.0837 8.84957 12.0837 10.0002C12.0837 11.1508 11.151 12.0835 10.0004 12.0835C8.84981 12.0835 7.91707 11.1508 7.91707 10.0002Z" fill="black" fill-opacity="0.5"/>
<path fill-rule="evenodd" clip-rule="evenodd" d="M10.0004 0.833496C9.33609 0.833496 8.68738 0.904297 8.06174 1.03907C7.60062 1.13839 7.25438 1.48681 7.13333 1.91424L6.76125 3.22811C6.63835 3.66208 6.19247 3.9195 5.75519 3.80895L4.4332 3.47473C4.00288 3.36594 3.52868 3.4913 3.21213 3.83994C2.34369 4.7964 1.67403 5.93806 1.26966 7.19958C1.12586 7.6482 1.25456 8.12156 1.56384 8.43973L2.51605 9.41932C2.83043 9.74274 2.83043 10.2576 2.51605 10.581L1.56384 11.5606C1.25456 11.8788 1.12586 12.3521 1.26966 12.8007C1.67403 14.0623 2.34369 15.2039 3.21213 16.1604C3.52869 16.509 4.00288 16.6344 4.4332 16.5256L5.75519 16.1914C6.19247 16.0808 6.63835 16.3382 6.76125 16.7722L7.13333 18.0861C7.25438 18.5135 7.60062 18.8619 8.06174 18.9613C8.68738 19.096 9.33609 19.1668 10.0004 19.1668C10.6647 19.1668 11.3134 19.096 11.939 18.9613C12.4002 18.8619 12.7464 18.5135 12.8675 18.0861L13.2395 16.7722C13.3624 16.3382 13.8083 16.0808 14.2456 16.1914L15.5676 16.5256C15.9979 16.6344 16.4721 16.509 16.7887 16.1604C17.6571 15.2039 18.3268 14.0623 18.7311 12.8007C18.8749 12.3521 18.7462 11.8788 18.4369 11.5606L17.4847 10.581C17.1704 10.2576 17.1704 9.74274 17.4847 9.41932L18.4369 8.43973C18.7462 8.12156 18.8749 7.6482 18.7311 7.19958C18.3268 5.93806 17.6571 4.7964 16.7887 3.83994C16.4721 3.4913 15.9979 3.36594 15.5676 3.47473L14.2456 3.80895C13.8083 3.9195 13.3624 3.66208 13.2395 3.22811L12.8675 1.91424C12.7464 1.48681 12.4002 1.1384 11.939 1.03907C11.3134 0.904297 10.6647 0.833496 10.0004 0.833496ZM8.36485 3.68224L8.66614 2.61835C9.0986 2.54075 9.54443 2.50016 10.0004 2.50016C10.4564 2.50016 10.9022 2.54076 11.3346 2.61835L11.6359 3.68224C12.0046 4.98416 13.3423 5.75644 14.6541 5.42478L15.7248 5.1541C16.2993 5.83199 16.7551 6.61266 17.061 7.46408L16.2896 8.25762C15.3465 9.22789 15.3465 10.7724 16.2896 11.7427L17.061 12.5362C16.7551 13.3877 16.2993 14.1683 15.7248 14.8462L14.6541 14.5755C13.3423 14.2439 12.0046 15.0162 11.6359 16.3181L11.3346 17.382C10.9022 17.4596 10.4564 17.5002 10.0004 17.5002C9.54443 17.5002 9.0986 17.4596 8.66614 17.382L8.36485 16.3181C7.99615 15.0162 6.65853 14.2439 5.34668 14.5755L4.27603 14.8462C3.70151 14.1683 3.24564 13.3877 2.93977 12.5362L3.71114 11.7427C4.65429 10.7724 4.65429 9.22789 3.71114 8.25762L2.93977 7.46408C3.24564 6.61266 3.70151 5.83199 4.27603 5.1541L5.34669 5.42478C6.65853 5.75644 7.99615 4.98416 8.36485 3.68224Z" fill="black" fill-opacity="0.5"/>
</svg>
